<svg xmlns="http://www.w3.org/2000/svg" viewBox="0 0 566.93 566.93"><defs><style>.cls-1{fill:#957952;}.cls-2{font-size:80px;fill:#fff;font-family:Salvatore-Regular, Salvatore;}</style></defs><title>Logo-White-Text</title><g id="Layer_1" data-name="Layer 1"><ellipse class="cls-1" cx="287.57" cy="282.03" rx="4.26" ry="167.58"/><circle class="cls-1" cx="286.02" cy="279.82" r="75.45"/><ellipse class="cls-1" cx="287.04" cy="282.03" rx="167.58" ry="4.26"/><ellipse class="cls-1" cx="287.41" cy="281.66" rx="4.26" ry="167.58" transform="translate(-114.98 285.73) rotate(-45)"/><ellipse class="cls-1" cx="287.04" cy="282.03" rx="167.58" ry="4.26" transform="translate(-115.35 285.57) rotate(-45)"/><ellipse class="cls-1" cx="286.56" cy="281.84" rx="167.58" ry="4.26" transform="translate(-81.7 442.88) rotate(-68.14)"/><ellipse class="cls-1" cx="287.04" cy="282.03" rx="4.26" ry="167.58" transform="translate(-81.57 443.45) rotate(-68.14)"/><ellipse class="cls-1" cx="286.56" cy="282.24" rx="4.26" ry="167.58" transform="translate(-87.87 135.35) rotate(-23.14)"/><ellipse class="cls-1" cx="287.04" cy="282.03" rx="167.58" ry="4.26" transform="matrix(0.92, -0.39, 0.39, 0.92, -87.75, 135.52)"/><path class="cls-1" d="M433.19,371c-21-9.72-37.81-16.88-57.08-31.36-17.52-13.15-36-28.37-56.62-36.85-1.46-.59-3.5,2-2.06,2.63,11.05,4.54,16.46,9.26,26.53,16.81,8.83,6.62,17.6,12.66,26.52,19.18a224.15,224.15,0,0,0,62.06,31.95c1.5.49,2.14-1.87.65-2.36Z"/><path class="cls-1" d="M143.84,370.27c21-9.71,37.8-16.88,57.08-31.36,17.51-13.15,36-28.37,56.62-36.84,1.45-.6,3.49,2,2.06,2.62-11.06,4.54-16.47,9.27-26.54,16.81-8.83,6.62-17.6,12.66-26.52,19.18a224,224,0,0,1-62,31.95c-1.5.49-2.14-1.87-.65-2.36Z"/><path class="cls-1" d="M432.44,193.78c-21,9.72-37.81,16.89-57.08,31.36-17.51,13.16-36,28.37-56.62,36.85-1.46.59-3.5-2-2.06-2.63,11.06-4.53,16.47-9.26,26.54-16.81,8.83-6.61,17.6-12.66,26.52-19.18a224.23,224.23,0,0,1,62.05-32c1.5-.49,2.14,1.87.65,2.36Z"/><path class="cls-1" d="M143.09,194.53c21,9.72,37.81,16.88,57.08,31.36,17.51,13.15,36,28.37,56.62,36.84,1.46.6,3.5-2,2.06-2.62-11.06-4.54-16.47-9.26-26.54-16.81-8.83-6.62-17.6-12.66-26.52-19.18a224.23,224.23,0,0,0-62-32c-1.5-.49-2.14,1.87-.65,2.36Z"/><path class="cls-1" d="M451.12,242.5c-21.73,8-38.67,14.79-62.53,18.19-21.69,3.08-45.5,5.37-66.09,14-1.46.61-1,3.91.4,3.31,11-4.61,18.19-5.09,30.65-6.88,10.92-1.56,21.4-3.49,32.31-5.19a224.11,224.11,0,0,0,66.47-21.28c1.41-.71.2-2.84-1.21-2.13Z"/><path class="cls-1" d="M246,446.57c8-21.73,14.8-38.67,18.19-62.54,3.08-21.68,5.37-45.49,14-66.09.61-1.45,3.92-1,3.32.41-4.61,11-5.1,18.19-6.88,30.65-1.57,10.92-3.49,21.39-5.19,32.31a224.13,224.13,0,0,1-21.29,66.47c-.71,1.41-2.83.19-2.13-1.21Z"/><path class="cls-1" d="M325.27,117.7c-8,21.73-14.8,38.67-18.19,62.54-3.08,21.68-5.37,45.49-14,66.09-.61,1.45-3.91,1-3.31-.4,4.61-11,5.09-18.2,6.88-30.65,1.56-10.92,3.49-21.4,5.18-32.32a224.22,224.22,0,0,1,21.29-66.47c.71-1.41,2.84-.19,2.13,1.21Z"/><path class="cls-1" d="M121.2,322.83c21.73-8,38.67-14.79,62.53-18.19,21.69-3.08,45.5-5.37,66.09-14,1.45-.61,1-3.91-.4-3.31-11,4.61-18.19,5.09-30.65,6.88-10.92,1.56-21.4,3.49-32.31,5.19A224,224,0,0,0,120,320.7c-1.41.71-.2,2.84,1.21,2.13Z"/><path class="cls-1" d="M454.27,305c-23.15-.43-41.41-.24-64.88-5.74-21.32-5-44.34-11.49-66.66-10.94-1.57,0-2.38,3.27-.83,3.23,12-.3,18.8,1.85,31.06,4.71,10.75,2.5,21.21,4.51,32,6.89a224,224,0,0,0,69.66,4.27c1.57-.15,1.21-2.57-.35-2.42Z"/><path class="cls-1" d="M189.08,420.8c15.33-17.35,27.81-30.67,39.63-51.68,10.74-19.09,21.51-40.45,37-56.52,1.09-1.13,4,.46,2.94,1.58-8.3,8.6-11.35,15.11-17.53,26.07-5.42,9.61-11,18.67-16.56,28.23a224,224,0,0,1-43.95,54.22c-1.17,1.05-2.71-.85-1.54-1.9Z"/><path class="cls-1" d="M382.26,143.09c-15.33,17.35-27.82,30.67-39.64,51.68-10.74,19.09-21.51,40.45-37,56.52-1.1,1.13-4-.46-2.94-1.58,8.29-8.6,11.34-15.11,17.52-26.07,5.42-9.61,11-18.67,16.56-28.23a224,224,0,0,1,43.95-54.22c1.18-1.05,2.71.85,1.55,1.9Z"/><path class="cls-1" d="M117.67,260.22c23.15.43,41.41.24,64.88,5.73,21.32,5,44.34,11.5,66.66,10.95,1.57,0,2.38-3.27.82-3.23-11.94.29-18.8-1.86-31.05-4.71-10.75-2.51-21.21-4.51-32-6.89a224,224,0,0,0-69.66-4.28c-1.57.16-1.21,2.58.35,2.43Z"/><path class="cls-1" d="M326.77,448.52c-8.06-21.7-14.91-38.62-18.38-62.47-3.16-21.68-5.52-45.48-14.2-66.05-.61-1.45-3.91-1-3.31.41,4.65,11,5.15,18.18,7,30.63,1.6,10.92,3.56,21.39,5.29,32.3a223.93,223.93,0,0,0,21.5,66.4c.72,1.41,2.84.18,2.12-1.22Z"/><path class="cls-1" d="M245.38,118.86c8.06,21.7,14.92,38.62,18.39,62.48,3.15,21.67,5.52,45.47,14.2,66,.61,1.45,3.91,1,3.31-.41-4.65-11-5.16-18.18-7-30.63C272.7,205.42,270.74,195,269,184a224.22,224.22,0,0,0-21.5-66.4c-.72-1.41-2.84-.18-2.13,1.22Z"/><path class="cls-1" d="M387.08,420.21c-15.63-17.08-28.35-30.18-40.53-51-11.07-18.9-22.21-40.06-38-55.86-1.11-1.11-4,.53-2.91,1.63,8.44,8.45,11.61,14.9,18,25.75,5.59,9.52,11.34,18.48,17.05,27.94a223.92,223.92,0,0,0,44.89,53.44c1.19,1,2.7-.89,1.51-1.92Z"/><path class="cls-1" d="M187.7,145.34c15.63,17.08,28.35,30.18,40.53,51,11.07,18.9,22.21,40.06,38,55.86,1.11,1.11,4-.53,2.91-1.63-8.44-8.45-11.61-14.9-18-25.75-5.59-9.52-11.34-18.48-17.05-27.94a224.16,224.16,0,0,0-44.89-53.45c-1.19-1-2.69.9-1.51,1.93Z"/></g><g id="Layer_3" data-name="Layer 3"><text class="cls-2" transform="matrix(0.99, -0.11, 0.11, 0.99, 242.23, 97.11)">F</text><text class="cls-2" transform="translate(318.05 94.48) rotate(16.88)">L</text><text class="cls-2" transform="matrix(0.79, 0.61, -0.61, 0.79, 377.96, 114.57)">Y</text><text class="cls-2" transform="matrix(0.52, 0.86, -0.86, 0.52, 440.15, 172.28)">•</text><text class="cls-2" transform="matrix(0.18, 0.98, -0.98, 0.18, 466.42, 220.66)">S</text><text class="cls-2" transform="translate(475.66 301.21) rotate(105.39)">U</text><text class="cls-2" transform="translate(446.68 383.74) rotate(132.27)">N</text><text class="cls-2" transform="translate(380.25 443.83) rotate(153.26)"> </text><text class="cls-2" transform="translate(335.09 462.69) rotate(169.38)">•</text><text class="cls-2" transform="translate(280.71 471.16) rotate(-168.42)">V</text><text class="cls-2" transform="translate(193.44 444.03) rotate(-146.8)">I</text><text class="cls-2" transform="translate(153.1 414.71) rotate(-127.7)">L</text><text class="cls-2" transform="translate(111.5 352.14) rotate(-104.71)">L</text><text class="cls-2" transform="translate(96.58 278.56) rotate(-79.77)">A</text><text class="cls-2" transform="translate(119.04 192.63) rotate(-53.87)">S</text><text class="cls-2" transform="translate(172.82 131.37) rotate(-33.12)">•</text><text class="cls-2" transform="translate(221.81 104.69) rotate(-17.02)"> </text></g></svg>